<svg id="Layer_2" data-name="Layer 2" xmlns="http://www.w3.org/2000/svg" viewBox="0 0 512 512"><defs><style>.cls-1{fill:#231f20;}</style></defs><path class="cls-1" d="M234.73,370.78A77.63,77.63,0,0,1,338.45,352c2.74,1.72,5.25-2.61,2.52-4.31a82.58,82.58,0,0,0-110.56,20.58c-1.94,2.56,2.4,5.06,4.32,2.52Z"/><path class="cls-1" d="M332.47,347.52c16.64-32.65,48.32-56.41,84-64.46a118.3,118.3,0,0,1,30.6-2.8c3.21.13,3.21-4.88,0-5-37.83-1.44-75.51,15.26-100.72,43.34A123.72,123.72,0,0,0,328.15,345c-1.46,2.87,2.85,5.4,4.32,2.53Z"/><path class="cls-1" d="M434.25,275.4,433,277.82l4.57.6c-2.63-8.75-.86-18.07,1.16-26.77a131.1,131.1,0,0,1,7.7-23.16,132.9,132.9,0,0,1,27.2-39.87c2.27-2.29-1.27-5.82-3.54-3.53a137.36,137.36,0,0,0-28.79,42.75,135.46,135.46,0,0,0-7.73,24c-2,9.13-3.57,18.79-.82,27.93.59,1.94,3.57,2.59,4.57.59l1.22-2.42c1.44-2.86-2.87-5.4-4.32-2.52Z"/><path class="cls-1" d="M469.42,190.71c-13.56-7.88-27.33-17-35.84-30.49-9.08-14.43-10.48-32-10.82-48.58-.06-3.22-5.06-3.23-5,0,.36,17.48,2,35.93,11.5,51.11,9,14.28,23.32,23.95,37.63,32.28,2.79,1.62,5.31-2.7,2.53-4.32Z"/><path class="cls-1" d="M320,56.72C334.39,71.42,348.32,87,364.77,99.4c15.32,11.56,34.29,20.67,53.91,17.13,3.16-.56,1.82-5.38-1.33-4.82-19,3.43-37.68-6.82-52.13-18.24C350.08,81.51,337,67,323.57,53.18c-2.25-2.3-5.78,1.24-3.53,3.54Z"/><path class="cls-1" d="M190.46,43.72A173.77,173.77,0,0,0,300.93,65c9.86-1.4,20.08-3.33,27.82-10,2.43-2.11-1.12-5.64-3.54-3.54-8.39,7.29-21.29,8.47-31.9,9.52a169.21,169.21,0,0,1-34.42-.13A167.77,167.77,0,0,1,193,39.4c-2.8-1.6-5.32,2.71-2.53,4.32Z"/><path class="cls-1" d="M193.35,41.64A133.66,133.66,0,0,1,110.78,91a127.84,127.84,0,0,1-28.25,1.61c-3.21-.16-3.21,4.84,0,5,34,1.75,68-10,94.2-31.58a130.14,130.14,0,0,0,20.16-20.81c1.94-2.51-1.57-6.07-3.54-3.53Z"/><path class="cls-1" d="M77.84,94.65c-.49,29.63-10,62.7-38.94,76.31-2.91,1.37-.38,5.68,2.52,4.32C72,160.93,82.32,125.93,82.84,94.65c0-3.22-5-3.22-5,0Z"/><path class="cls-1" d="M38.46,175.49a77.29,77.29,0,0,1,17.33,44.29c.66,13.45-3,28.64-14.85,36.53-2.66,1.78-.16,6.11,2.52,4.32,13.07-8.73,17.89-24.88,17.37-39.95-.61-17.78-7.69-35-18.83-48.73-2-2.5-5.55,1.06-3.54,3.54Z"/><path class="cls-1" d="M43,262.54c2.38-2.92,10.26.57,13.14,1.53a87,87,0,0,1,12.52,5.26,92.86,92.86,0,0,1,22.2,15.86C104.09,298,118,318.4,112.67,337.72c-.85,3.1,4,4.43,4.82,1.33,4.78-17.31-4.3-35-14.83-48.26a97.38,97.38,0,0,0-39-29.22,88.34,88.34,0,0,0-13.53-4.41c-3.65-.87-8-1.41-10.7,1.85-2,2.47,1.5,6,3.53,3.53Z"/><path class="cls-1" d="M421.61,220.19q-1.22,21.17-.94,42.35c0,3.22,5,3.23,5,0q-.27-21.18.94-42.35c.18-3.21-4.82-3.2-5,0Z"/><path class="cls-1" d="M424,261.54c-9.91-3-21.76-.11-31.43,2.76a110.21,110.21,0,0,0-65.7,53.58c-1.5,2.84,2.81,5.37,4.32,2.52a105.24,105.24,0,0,1,61.82-51c9-2.76,20.38-5.84,29.66-3,3.08.93,4.4-3.89,1.33-4.82Z"/><path class="cls-1" d="M158.24,102.93c15.23-8.75,29.07-19.87,39.6-34,1.93-2.59-2.41-5.08-4.31-2.53-10,13.44-23.37,23.93-37.81,32.23-2.79,1.6-.28,5.93,2.52,4.32Z"/><path class="cls-1" d="M243.23,80.24a166.58,166.58,0,0,1-44-11.8c-2.93-1.24-5.48,3.07-2.53,4.32a175.49,175.49,0,0,0,46.49,12.48c3.18.4,3.15-4.6,0-5Z"/><path class="cls-1" d="M235.66,370.62c-8.12-15.13-21.87-26.75-37.5-33.6-17.69-7.75-37.21-9.28-56.19-6.34a140.52,140.52,0,0,0-33.21,9.73,2.52,2.52,0,0,0-.9,3.42,2.56,2.56,0,0,0,3.42.9c17.9-7.58,37.55-11.76,57-10.16,16.53,1.36,32.88,7.37,45.8,17.91a68.8,68.8,0,0,1,17.25,20.66c1.52,2.84,5.84.32,4.31-2.52Z"/></svg>